<svg width="20" height="20" viewBox="0 0 20 20" fill="none" xmlns="http://www.w3.org/2000/svg">
<path d="M14.6673 15.334V11.334M14.6673 11.334L16.0007 12.6673M14.6673 11.334L13.334 12.6673" stroke="#4B4949" stroke-width="1.07143" stroke-linecap="round" stroke-linejoin="round"/>
<path d="M16.6673 9.99935C16.6673 7.48519 16.6673 6.22811 15.8863 5.44706C15.1052 4.66602 13.8481 4.66602 11.334 4.66602H8.66732C6.15316 4.66602 4.89608 4.66602 4.11503 5.44706C3.33398 6.22811 3.33398 7.48519 3.33398 9.99935C3.33398 12.5135 3.33398 13.7706 4.11503 14.5516C4.89608 15.3327 6.15316 15.3327 8.66732 15.3327H11.334" stroke="#4B4949" stroke-width="1.07143" stroke-linecap="round"/>
<path d="M8.66667 12.666H6" stroke="#4B4949" stroke-width="1.07143" stroke-linecap="round"/>
<path d="M10.6663 12.666H10.333" stroke="#4B4949" stroke-width="1.07143" stroke-linecap="round"/>
<path d="M3.33398 8.66602L16.6673 8.66602" stroke="#4B4949" stroke-width="1.07143" stroke-linecap="round"/>
</svg>
