<svg width="78" height="42" viewBox="0 0 78 42" fill="none" xmlns="http://www.w3.org/2000/svg">
<rect width="78" height="42" fill="white"/>
<rect x="39" y="3" width="36" height="36" fill="white"/>
<path d="M61.333 18.8338L61.9036 18.5485C63.59 17.7053 64.4332 17.2836 65.0498 17.6647C65.6663 18.0457 65.6663 18.9885 65.6663 20.874V21.1269C65.6663 23.0124 65.6663 23.9551 65.0498 24.3362C64.4332 24.7172 63.59 24.2956 61.9036 23.4524L61.333 23.1671V18.8338Z" stroke="black" stroke-width="1.5"/>
<path d="M58.353 17.0478C58.8607 17.5554 58.8607 18.3785 58.353 18.8862C57.8453 19.3939 57.0222 19.3939 56.5146 18.8862C56.0069 18.3785 56.0069 17.5554 56.5146 17.0478C57.0222 16.5401 57.8453 16.5401 58.353 17.0478Z" stroke="black" stroke-width="1.5"/>
<path d="M48.333 20.5664C48.333 17.7173 48.333 16.2927 49.1199 15.3338C49.264 15.1583 49.4249 14.9974 49.6004 14.8533C50.5593 14.0664 51.9839 14.0664 54.833 14.0664C57.6822 14.0664 59.1067 14.0664 60.0656 14.8533C60.2411 14.9974 60.4021 15.1583 60.5461 15.3338C61.333 16.2927 61.333 17.7173 61.333 20.5664V21.4331C61.333 24.2822 61.333 25.7068 60.5461 26.6656C60.4021 26.8412 60.2411 27.0021 60.0656 27.1462C59.1067 27.9331 57.6822 27.9331 54.833 27.9331C51.9839 27.9331 50.5593 27.9331 49.6004 27.1462C49.4249 27.0021 49.264 26.8412 49.1199 26.6656C48.333 25.7068 48.333 24.2822 48.333 21.4331V20.5664Z" stroke="black" stroke-width="1.5"/>
<rect x="3" y="3" width="36" height="36" fill="black"/>
<path d="M12.333 20.9997C12.333 16.9142 12.333 14.8714 13.6022 13.6022C14.8714 12.333 16.9142 12.333 20.9997 12.333C25.0852 12.333 27.1279 12.333 28.3971 13.6022C29.6663 14.8714 29.6663 16.9142 29.6663 20.9997C29.6663 25.0852 29.6663 27.1279 28.3971 28.3971C27.1279 29.6663 25.0852 29.6663 20.9997 29.6663C16.9142 29.6663 14.8714 29.6663 13.6022 28.3971C12.333 27.1279 12.333 25.0852 12.333 20.9997Z" stroke="white" stroke-width="1.5"/>
<circle cx="24.4667" cy="17.5334" r="1.73333" stroke="white" stroke-width="1.5"/>
<path d="M12.333 21.4338L13.851 20.1055C14.6408 19.4145 15.8311 19.4541 16.5732 20.1961L20.2909 23.9139C20.8865 24.5095 21.8241 24.5907 22.5132 24.1064L22.7717 23.9248C23.7633 23.2278 25.105 23.3086 26.0059 24.1194L28.7997 26.6338" stroke="white" stroke-width="1.5" stroke-linecap="round"/>
</svg>
