<svg width="28" height="28" viewBox="0 0 28 28" fill="none" xmlns="http://www.w3.org/2000/svg">
<path d="M14 13.9997L18.6667 9.33301M18.6667 9.33301H15.1667M18.6667 9.33301V12.833" stroke="black" stroke-width="1.5" stroke-linecap="round" stroke-linejoin="round"/>
<path d="M14 14.0003L9.33333 18.667M9.33333 18.667H12.8333M9.33333 18.667V15.167" stroke="black" stroke-width="1.5" stroke-linecap="round" stroke-linejoin="round"/>
<path d="M4.66602 14.0003C4.66602 9.60055 4.66602 7.40066 6.03285 6.03383C7.39969 4.66699 9.59957 4.66699 13.9993 4.66699C18.3991 4.66699 20.599 4.66699 21.9658 6.03383C23.3327 7.40066 23.3327 9.60055 23.3327 14.0003C23.3327 18.4001 23.3327 20.6 21.9658 21.9668C20.599 23.3337 18.3991 23.3337 13.9993 23.3337C9.59957 23.3337 7.39969 23.3337 6.03285 21.9668C4.66602 20.6 4.66602 18.4001 4.66602 14.0003Z" stroke="black" stroke-width="1.5"/>
</svg>
