<svg width="20" height="20" viewBox="0 0 20 20" fill="none" xmlns="http://www.w3.org/2000/svg">
<path d="M3.33398 11.3333C3.33398 8.81918 3.33398 7.5621 4.11503 6.78105C4.89608 6 6.15316 6 8.66732 6H11.334C13.8481 6 15.1052 6 15.8863 6.78105C16.6673 7.5621 16.6673 8.81918 16.6673 11.3333C16.6673 13.8475 16.6673 15.1046 15.8863 15.8856C15.1052 16.6667 13.8481 16.6667 11.334 16.6667H8.66732C6.15316 16.6667 4.89608 16.6667 4.11503 15.8856C3.33398 15.1046 3.33398 13.8475 3.33398 11.3333Z" stroke="#4B4949" stroke-width="1.07143"/>
<path d="M12.6663 5.99967C12.6663 4.7426 12.6663 4.11406 12.2758 3.72353C11.8853 3.33301 11.2568 3.33301 9.99967 3.33301C8.7426 3.33301 8.11406 3.33301 7.72353 3.72353C7.33301 4.11406 7.33301 4.7426 7.33301 5.99967" stroke="#4B4949" stroke-width="1.07143"/>
<path d="M10.0003 13.5559C10.7367 13.5559 11.3337 13.0584 11.3337 12.4448C11.3337 11.8311 10.7367 11.3337 10.0003 11.3337C9.26395 11.3337 8.66699 10.8362 8.66699 10.2225C8.66699 9.6089 9.26395 9.11144 10.0003 9.11144M10.0003 13.5559C9.26395 13.5559 8.66699 13.0584 8.66699 12.4448M10.0003 13.5559V14.0003M10.0003 8.66699V9.11144M10.0003 9.11144C10.7367 9.11144 11.3337 9.6089 11.3337 10.2225" stroke="#4B4949" stroke-width="1.07143" stroke-linecap="round"/>
</svg>
