<svg width="19" height="28" viewBox="0 0 19 28" fill="none" xmlns="http://www.w3.org/2000/svg">
<path d="M9.5 0C4.2618 0 0 4.18704 0 9.33335C0 10.8783 0.393154 12.4101 1.14055 13.7687L8.98049 27.6992C9.08486 27.8849 9.28375 28 9.5 28C9.71626 28 9.91514 27.8849 10.0195 27.6992L17.8623 13.7641C18.6068 12.4101 19 10.8782 19 9.3333C19 4.18704 14.7382 0 9.5 0ZM9.5 14C6.8809 14 4.75003 11.9065 4.75003 9.33335C4.75003 6.7602 6.8809 4.6667 9.5 4.6667C12.1191 4.6667 14.25 6.7602 14.25 9.33335C14.25 11.9065 12.1191 14 9.5 14Z" fill="#4A4848"/>
</svg>
