<svg width="15" height="15" viewBox="0 0 15 15" fill="none" xmlns="http://www.w3.org/2000/svg">
<path d="M12.1232 4.92174L12.3788 4.66611C12.6166 4.42838 12.7354 4.30951 12.8068 4.18586C13.0006 3.8503 13.0006 3.43687 12.8068 3.10131C12.7354 2.97765 12.6166 2.85879 12.3788 2.62106C12.1411 2.38333 12.0222 2.26446 11.8986 2.19307C11.563 1.99933 11.1496 1.99933 10.814 2.19307C10.6904 2.26446 10.5715 2.38333 10.3338 2.62106L10.0782 2.87669M7.01058 10.0344L3.17612 13.8688C2.93839 14.1066 2.81952 14.2254 2.69587 14.2968C2.36031 14.4906 1.94688 14.4905 1.61132 14.2968C1.48766 14.2254 1.3688 14.1066 1.13107 13.8688C0.893337 13.6311 0.774472 13.5122 0.70308 13.3886C0.509344 13.053 0.509344 12.6396 0.70308 12.304C0.774472 12.1804 0.893337 12.0615 1.13107 11.8238L4.96553 7.98931M4.45427 7.47805L7.52184 10.5456C8.7269 11.7507 9.32943 12.3532 10.0782 12.3532C10.8269 12.3532 11.4294 11.7507 12.6345 10.5456C13.8395 9.34057 14.4421 8.73804 14.4421 7.98931C14.4421 7.24059 13.8395 6.63806 12.6345 5.433L9.56689 2.36543C8.36184 1.16037 7.75931 0.557841 7.01058 0.557841C6.26186 0.557841 5.65933 1.16037 4.45427 2.36543C3.24921 3.57048 2.64669 4.17301 2.64669 4.92174C2.64669 5.67046 3.24921 6.27299 4.45427 7.47805Z" stroke="#4B4949" stroke-width="1.07143"/>
</svg>
