<svg width="16" height="15" viewBox="0 0 16 15" fill="none" xmlns="http://www.w3.org/2000/svg">
<g clip-path="url(#clip0_90_1790)">
<path d="M7.65789 13.7368C3.94737 13.7368 0.947368 10.8158 0.947368 7.42105C0.947368 3.71053 3.94737 0.789474 7.65789 0.789474C11.3684 0.789474 14.3684 3.63158 14.3684 7.26316C14.3684 10.7368 11.3684 13.5789 7.65789 13.5789M7.65789 0C3.71053 0 0 3.15789 0 7.3421C0 11.2895 3.39474 14.6842 7.73684 14.6842C12 14.6842 15.3947 11.5263 15.3947 7.3421C15.3947 3.39474 12 0.0789474 7.73684 0" fill="black"/>
<path d="M13.8943 7.10567C13.7364 7.26357 13.6574 7.50041 13.7364 7.73725C13.7364 7.89515 13.7364 8.05304 13.5785 8.21094V7.89515H13.4206C13.2627 7.65831 13.2627 7.50041 13.2627 7.34252C13.2627 7.18462 13.2627 6.94778 13.1048 6.78989L12.868 6.63199H12.3943C12.3943 6.63199 12.3943 6.94778 12.2364 7.10567C12.2364 7.42146 11.9206 7.50041 11.6048 7.57936C11.368 7.57936 11.1311 7.73725 10.9732 7.34252C10.9732 7.34252 10.6574 7.34252 10.5785 7.18462L10.2627 6.94778V6.3162V7.42146C10.5785 7.8162 10.8153 7.8162 11.0522 7.8162H11.6048C11.6048 7.8162 11.4469 7.8162 11.6048 8.05304C11.6048 8.28989 11.6048 8.36883 11.368 8.52673L10.9732 8.92146L10.4995 9.3162C10.3416 9.55304 10.2627 9.86883 10.3416 10.1057H11.1311V10.8951C11.1311 10.8951 10.9732 11.132 10.7364 11.132C10.4995 11.3688 10.2627 11.3688 10.1048 11.132L9.86796 10.8162C9.63112 11.2899 9.47322 11.6057 8.84164 11.7636C8.6048 11.7636 8.36796 11.7636 8.36796 12.0794C8.05217 12.0794 7.81533 11.6846 7.73638 11.2899V11.053C7.49954 10.8951 7.49954 10.7373 7.49954 10.5794C7.49954 10.2636 7.49954 9.94778 7.18375 9.78988L6.78901 9.15831V8.68462C6.55217 8.52673 6.39427 8.44778 6.15743 8.52673C5.68375 8.52673 5.13112 8.52673 4.57849 8.28989C4.57849 8.28989 4.57849 8.13199 4.34164 8.05304V6.78989C4.34164 6.55304 4.34164 6.23725 4.81533 6.00041C4.81533 5.76357 5.05217 5.68462 5.21006 5.68462C5.21006 5.68462 5.44691 5.68462 5.52585 5.52673V5.28989V4.50041C5.99954 4.50041 6.15743 4.50041 6.31533 4.26357L5.99954 3.94778H5.52585C5.52585 3.63199 5.92059 3.3162 6.31533 3.15831C6.55217 3.39515 6.55217 3.94778 7.1048 3.94778V3.71094C7.2627 3.39515 7.42059 3.15831 7.34164 2.76357C7.34164 2.36883 7.73638 1.9741 8.13112 2.21094H8.52585L8.92059 1.9741C9.07849 1.9741 9.15743 1.9741 9.15743 2.13199V2.36883C9.47322 2.52673 9.71006 2.68462 10.1048 2.52673C10.2627 2.52673 10.3416 2.36883 10.4995 2.28989C10.1837 1.73725 9.86796 1.50041 9.47322 1.50041C7.89427 0.94778 6.47322 0.94778 4.97322 1.50041L4.18375 2.05304V2.60567C4.18375 2.76357 4.02585 2.84252 4.18375 2.92146C4.18375 3.07936 4.34164 3.23725 4.18375 3.39515H3.94691V3.94778C3.71006 3.94778 3.63112 3.94778 3.55217 4.10567C3.55217 4.57936 3.55217 4.57936 2.99954 4.57936H2.84164C2.84164 4.57936 2.68375 4.57936 2.68375 4.73725C2.68375 4.89515 2.44691 4.9741 2.28901 5.05304C1.81533 5.05304 1.49954 5.21094 1.49954 5.52673C1.49954 6.07936 1.49954 6.55304 1.2627 7.10567V7.89515C1.2627 8.05304 1.42059 8.13199 1.57848 8.13199C1.89427 8.13199 1.97322 8.13199 1.97322 8.44778C1.97322 8.60567 2.36796 9.00041 2.52585 9.07936H3.15743C3.63112 9.23725 3.78901 9.55304 3.71006 9.86883V11.053C3.55217 11.053 3.55217 11.053 3.55217 11.2109V11.6057C3.71006 11.6057 3.71006 11.6057 3.71006 11.7636H3.94691C5.99954 13.3425 9.07849 13.3425 11.289 11.7636C11.6837 11.5267 11.8416 11.2109 12.0785 10.9741C12.0785 10.6583 12.0785 10.6583 12.2364 10.5794C12.7101 10.5794 13.0259 10.1846 13.0259 9.78988V9.4741L13.2627 9.15831C13.4206 9.15831 13.4206 9.00041 13.4995 8.84252V8.68462C13.8943 8.21094 13.9732 7.65831 13.8943 7.10567Z" fill="black"/>
<path d="M7.57884 4.57931H7.342L6.94727 4.7372C7.10516 4.7372 7.342 4.7372 7.4999 4.8951C7.65779 4.8951 7.81569 4.8951 7.89463 5.05299C8.13148 5.52668 8.44727 5.52668 8.842 5.44773C9.23674 5.13194 9.31569 5.44773 9.63148 5.44773V5.52668C9.78937 5.52668 9.94727 5.68457 10.0262 5.52668C10.1841 5.52668 10.2631 5.36878 10.2631 5.21089C10.2631 5.21089 10.2631 4.97404 10.1052 4.8951L9.71042 4.7372L8.44727 4.50036H8.28937L7.81569 4.18457H7.342M10.2631 3.15825C10.5788 3.00036 11.0525 2.92141 11.3683 3.00036C11.1315 2.84246 10.9736 2.76352 10.7367 2.76352C10.4999 2.76352 10.342 2.92141 10.2631 3.15825ZM7.73674 3.47404C7.97358 3.47404 8.13148 3.47404 8.36832 3.31615C8.52621 3.31615 8.52621 3.07931 8.36832 3.00036L8.05253 2.68457C8.05253 3.15825 7.89463 3.31615 7.73674 3.47404Z" fill="black"/>
</g>
<defs>
<clipPath id="clip0_90_1790">
<rect width="15.7895" height="15" fill="white"/>
</clipPath>
</defs>
</svg>
