<svg width="164" height="56" viewBox="0 0 164 56" fill="none" xmlns="http://www.w3.org/2000/svg">
<path d="M5.03402 42.014C6.04703 42.014 6.86824 41.2143 6.86824 40.2278C6.86824 39.2414 6.04703 38.4417 5.03402 38.4417C4.021 38.4417 3.19979 39.2414 3.19979 40.2278C3.19979 41.2143 4.021 42.014 5.03402 42.014Z" fill="white"/>
<path d="M9.63802 36.7746C9.67878 36.7746 9.71954 36.7746 9.7603 36.7746C10.0864 36.7746 10.3921 36.6555 10.6163 36.4174L27.8987 19.6275C28.3675 19.171 28.3675 18.4169 27.8987 17.9406C27.43 17.4841 26.6555 17.4841 26.1664 17.9406L9.98448 33.6588C8.5171 31.0589 7.74265 28.1415 7.74265 25.1447C7.74265 15.4003 15.8948 7.46177 25.9015 7.46177C29.5088 7.46177 32.9734 8.49377 35.9693 10.4189C36.4584 10.7364 37.0902 10.6769 37.5182 10.2799L43.4081 4.54438C43.8768 4.08792 43.8768 3.33376 43.4081 2.85745C42.9394 2.40099 42.1649 2.40099 41.6758 2.85745L36.4788 7.91823C33.2995 6.05269 29.6514 5.08023 25.9218 5.08023C14.5497 5.08023 5.29702 14.0904 5.29702 25.1447C5.29702 29.114 6.47908 32.9443 8.74129 36.2388C8.94509 36.5365 9.27117 36.7349 9.63802 36.7746Z" fill="white"/>
<path d="M42.4099 13.1381C42.0023 12.6022 41.2482 12.503 40.698 12.8999C40.1477 13.2968 40.0458 14.0311 40.4534 14.567C42.8175 17.6432 44.0607 21.2949 44.0607 25.145C44.0607 34.8895 35.9086 42.828 25.9019 42.828C22.7837 42.828 19.7675 42.054 17.0773 40.6052L33.2592 24.8672C33.7279 24.4107 33.7279 23.6566 33.2592 23.1802C32.7904 22.7238 32.016 22.7238 31.5269 23.1802L14.2648 39.9701L2.74993 51.1634C2.28119 51.6198 2.28119 52.374 2.74993 52.8503C2.9945 53.0885 3.3002 53.2075 3.6059 53.2075C3.91161 53.2075 4.23769 53.0885 4.46188 52.8503L15.2838 42.3318C18.4835 44.2172 22.1316 45.2095 25.9019 45.2095C37.2537 45.2095 46.5064 36.2192 46.5064 25.145C46.5064 20.7789 45.0797 16.6111 42.4099 13.1381Z" fill="white"/>
<path d="M70.2503 20.6201H72.2272C72.431 20.6201 72.6144 20.7987 72.6144 20.9971V28.241C72.6144 28.3601 72.5736 28.4593 72.4717 28.5387C71.5138 29.3325 70.3929 29.9478 69.1294 30.3844C67.8046 30.8408 66.4188 31.079 64.9922 31.079C62.9541 31.079 61.1403 30.6225 59.5099 29.6898C57.8795 28.7768 56.5955 27.5067 55.6784 25.8793C54.7409 24.2718 54.2925 22.4459 54.2925 20.4216C54.2925 18.3973 54.7613 16.5714 55.6784 14.944C56.6159 13.3166 57.8998 12.0465 59.5303 11.1336C61.1607 10.2206 63.0153 9.76418 65.0533 9.76418C66.6633 9.76418 68.1307 10.042 69.4351 10.5779C70.6375 11.074 71.9214 11.987 72.8182 12.9396C72.9608 13.0785 72.9608 13.3166 72.8182 13.4556L71.5546 14.7654C71.4119 14.9242 71.1674 14.9242 71.0043 14.7853C69.4147 13.3365 67.3155 12.4037 65.1552 12.4037C63.6267 12.4037 62.2408 12.7411 61.0384 13.4357C59.8156 14.1105 58.8781 15.0631 58.1852 16.2936C57.4922 17.5042 57.1458 18.8934 57.1458 20.4216C57.1458 21.9299 57.4922 23.2993 58.1852 24.5099C58.8781 25.7205 59.836 26.693 61.0384 27.3876C62.2612 28.0822 63.6267 28.4196 65.1348 28.4196C66.8671 28.4196 68.3753 28.0028 69.6796 27.1891C69.7815 27.1296 69.863 26.9907 69.863 26.8716V20.9971C69.863 20.7788 70.0465 20.6201 70.2503 20.6201Z" fill="white"/>
<path d="M90.9766 30.3248L82.7634 9.10918C82.7023 8.95041 82.4781 8.95041 82.4169 9.10918L74.2037 30.3248C74.1018 30.5629 74.2852 30.8408 74.5705 30.8408H76.7512C76.9143 30.8408 77.0569 30.7415 77.1181 30.6026L82.3558 16.75C82.4373 16.5317 82.743 16.5317 82.8245 16.75L88.0623 30.6026C88.1234 30.7415 88.2661 30.8408 88.4291 30.8408H90.6098C90.8747 30.8408 91.0582 30.5629 90.9766 30.3248Z" fill="white"/>
<path d="M103.165 28.2412H95.0131C94.7889 28.2412 94.6259 28.0626 94.6259 27.8641V10.3796C94.6259 10.1812 94.4629 10.0025 94.2387 10.0025H92.1395C91.9153 10.0025 91.7523 10.1613 91.7523 10.3796V25.7406L93.7292 30.8411H103.165C103.389 30.8411 103.552 30.6624 103.552 30.464V28.6381C103.552 28.4198 103.389 28.2412 103.165 28.2412Z" fill="white"/>
<path d="M112.336 10.0024H114.435C114.639 10.0024 114.822 10.181 114.822 10.3795V27.8839C114.822 28.0823 115.006 28.2609 115.209 28.2609H123.362C123.565 28.2609 123.749 28.4395 123.749 28.638V30.4837C123.749 30.6822 123.565 30.8608 123.362 30.8608H112.336C112.132 30.8608 111.949 30.6822 111.949 30.4837V10.3795C111.949 10.1612 112.112 10.0024 112.336 10.0024Z" fill="white"/>
<path d="M106.589 10.0025H108.688C108.892 10.0025 109.075 10.1812 109.075 10.3796V30.464C109.075 30.6624 108.892 30.8411 108.688 30.8411H106.589C106.385 30.8411 106.201 30.6624 106.201 30.464V10.3796C106.201 10.1613 106.385 10.0025 106.589 10.0025Z" fill="white"/>
<path d="M138.198 28.6182V30.4639C138.198 30.6623 138.015 30.8409 137.811 30.8409H126.826C126.622 30.8409 126.439 30.6623 126.439 30.4639V10.3795C126.439 10.181 126.622 10.0024 126.826 10.0024H137.811C138.015 10.0024 138.198 10.181 138.198 10.3795V12.2252C138.198 12.4237 138.015 12.6023 137.811 12.6023H129.7C129.496 12.6023 129.313 12.7809 129.313 12.9794V18.7943C129.313 18.9928 129.496 19.1714 129.7 19.1714H135.875C136.079 19.1714 136.262 19.35 136.262 19.5484V21.3346C136.262 21.5331 136.079 21.7117 135.875 21.7117H129.7C129.496 21.7117 129.313 21.8903 129.313 22.0888V27.9037C129.313 28.1022 129.496 28.2808 129.7 28.2808H137.811C138.015 28.2411 138.198 28.4197 138.198 28.6182Z" fill="white"/>
<path d="M144.802 29.6902C143.111 28.7773 141.786 27.4873 140.808 25.8599C139.85 24.2325 139.361 22.4265 139.361 20.4022C139.361 18.3977 139.85 16.5917 140.808 14.9445C141.766 13.3171 143.111 12.0469 144.802 11.1142C146.494 10.2013 148.41 9.72494 150.509 9.72494C152.608 9.72494 154.503 10.1814 156.195 11.1142C157.886 12.0271 159.211 13.3171 160.169 14.9246C161.127 16.552 161.596 18.358 161.596 20.3824C161.596 22.4067 161.127 24.2325 160.169 25.8401C159.211 27.4674 157.886 28.7376 156.195 29.6505C154.503 30.5833 152.608 31.0398 150.509 31.0398C148.41 31.0795 146.494 30.6032 144.802 29.6902ZM154.666 27.3881C155.889 26.6934 156.867 25.7408 157.56 24.5104C158.274 23.2997 158.62 21.9304 158.62 20.422C158.62 18.9137 158.274 17.5443 157.56 16.3337C156.847 15.1231 155.889 14.1506 154.666 13.456C153.444 12.7614 152.058 12.424 150.529 12.424C149.001 12.424 147.594 12.7813 146.351 13.456C145.108 14.1506 144.13 15.1033 143.416 16.3337C142.703 17.5443 142.357 18.9137 142.357 20.422C142.357 21.9304 142.703 23.2997 143.416 24.5104C144.13 25.721 145.108 26.6934 146.351 27.3881C147.594 28.0827 148.98 28.4201 150.529 28.4201C152.058 28.4201 153.423 28.0827 154.666 27.3881Z" fill="white"/>
<path d="M54.4966 45.0705V36.7351H56.3308C56.5753 36.7351 56.8607 36.7748 57.1664 36.8542C57.4721 36.9336 57.7574 37.0526 58.0223 37.2313C58.2873 37.4099 58.5115 37.6282 58.6949 37.906C58.8783 38.1839 58.9598 38.5213 58.9598 38.8983C58.9598 39.5731 58.7357 40.1288 58.2873 40.5257C57.8389 40.9226 57.2071 41.141 56.3715 41.141H55.0061V45.0507H54.4966V45.0705ZM55.0061 40.6646H56.2696C56.6976 40.6646 57.0441 40.6051 57.3294 40.5059C57.6147 40.3868 57.8389 40.2479 58.002 40.0693C58.165 39.8906 58.2873 39.712 58.3484 39.5136C58.4096 39.3151 58.4503 39.1166 58.4503 38.9182C58.4503 38.6999 58.3892 38.4816 58.2873 38.2831C58.1854 38.0846 58.0223 37.8862 57.8389 37.7274C57.6351 37.5686 57.4109 37.4496 57.146 37.3503C56.881 37.2511 56.5957 37.2114 56.29 37.2114H55.0061V40.6646Z" fill="white"/>
<path d="M66.3982 45.0715V36.7361H68.2324C68.477 36.7361 68.7623 36.7758 69.068 36.8552C69.3737 36.9345 69.659 37.0536 69.924 37.2322C70.1889 37.4109 70.4131 37.6292 70.5965 37.907C70.7799 38.1849 70.8615 38.5222 70.8615 38.8993C70.8615 39.4749 70.6984 39.9512 70.3927 40.3282C70.087 40.7053 69.6183 40.9435 69.0272 41.0824C69.3533 41.7572 69.6794 42.4319 70.0055 43.0869C70.3316 43.7418 70.6577 44.4166 70.9634 45.0715H70.4131C70.087 44.3967 69.7813 43.7418 69.4552 43.0869C69.1291 42.4319 68.8234 41.777 68.4974 41.1221C68.4158 41.1221 68.3547 41.1419 68.2732 41.1419C68.212 41.1419 68.1305 41.1419 68.0694 41.1419H66.9077V45.0516H66.3982V45.0715ZM66.9077 40.6656H68.1713C68.5993 40.6656 68.9457 40.6061 69.231 40.5069C69.5164 40.3878 69.7405 40.2489 69.9036 40.0702C70.0666 39.8916 70.1889 39.713 70.2501 39.5145C70.3112 39.3161 70.352 39.1176 70.352 38.9192C70.352 38.7009 70.2908 38.4825 70.1889 38.2841C70.087 38.0856 69.924 37.8872 69.7406 37.7284C69.5367 37.5696 69.3126 37.4505 69.0476 37.3513C68.7827 37.2521 68.4974 37.2124 68.1916 37.2124H66.9077V40.6656Z" fill="white"/>
<path d="M78.7905 40.903C78.7905 40.3076 78.9128 39.7717 79.137 39.2359C79.3612 38.7199 79.6669 38.2634 80.0745 37.8863C80.4617 37.5093 80.9304 37.1917 81.4603 36.9734C81.9902 36.7551 82.5609 36.636 83.1519 36.636C83.7633 36.636 84.3136 36.7551 84.8638 36.9734C85.3937 37.1917 85.8625 37.5093 86.2497 37.8863C86.6369 38.2634 86.963 38.7199 87.1872 39.2359C87.4114 39.7519 87.5336 40.3076 87.5336 40.903C87.5336 41.4983 87.4114 42.0342 87.1872 42.5502C86.963 43.0662 86.6369 43.5227 86.2497 43.8997C85.8625 44.2768 85.3937 44.5944 84.8638 44.8127C84.3339 45.031 83.7633 45.15 83.1519 45.15C82.5405 45.15 81.9902 45.031 81.4603 44.8127C80.9304 44.5944 80.4617 44.2967 80.0745 43.8997C79.6872 43.5227 79.3612 43.0662 79.137 42.5502C78.9128 42.054 78.7905 41.4983 78.7905 40.903ZM79.3 40.9228C79.3 41.4388 79.4019 41.935 79.6057 42.3914C79.8095 42.8479 80.0745 43.2448 80.4209 43.5822C80.7674 43.9196 81.175 44.1974 81.6438 44.376C82.1125 44.5745 82.6016 44.6737 83.1315 44.6737C83.6614 44.6737 84.1709 44.5745 84.6397 44.376C85.1084 44.1776 85.5364 43.8997 85.8828 43.5623C86.2293 43.225 86.5146 42.828 86.7184 42.3716C86.9222 41.9151 87.0241 41.419 87.0241 40.903C87.0241 40.387 86.9222 39.8908 86.7184 39.4343C86.5146 38.9779 86.2293 38.5611 85.8828 38.2237C85.5364 37.8863 85.1288 37.6085 84.6397 37.41C84.1709 37.2116 83.6614 37.1123 83.1315 37.1123C82.6016 37.1123 82.0921 37.2116 81.6234 37.41C81.1546 37.6085 80.747 37.8863 80.4006 38.2237C80.0541 38.5611 79.7688 38.9779 79.5853 39.4343C79.4019 39.9106 79.3 40.387 79.3 40.9228Z" fill="white"/>
<path d="M101.433 36.7351V37.2114H98.2941V45.0705H97.7846V37.2114H94.646V36.7351H101.433Z" fill="white"/>
<path d="M108.422 40.903C108.422 40.3076 108.544 39.7717 108.769 39.2359C108.993 38.7199 109.299 38.2634 109.706 37.8863C110.093 37.5093 110.562 37.1917 111.092 36.9734C111.622 36.7551 112.193 36.636 112.784 36.636C113.395 36.636 113.945 36.7551 114.496 36.9734C115.025 37.1917 115.494 37.5093 115.881 37.8863C116.269 38.2634 116.595 38.7199 116.819 39.2359C117.043 39.7519 117.165 40.3076 117.165 40.903C117.165 41.4983 117.043 42.0342 116.819 42.5502C116.595 43.0662 116.269 43.5227 115.881 43.8997C115.494 44.2768 115.025 44.5944 114.496 44.8127C113.966 45.031 113.395 45.15 112.784 45.15C112.172 45.15 111.622 45.031 111.092 44.8127C110.562 44.5944 110.093 44.2967 109.706 43.8997C109.319 43.5227 108.993 43.0662 108.769 42.5502C108.544 42.054 108.422 41.4983 108.422 40.903ZM108.932 40.9228C108.932 41.4388 109.034 41.935 109.237 42.3914C109.441 42.8479 109.706 43.2448 110.053 43.5822C110.399 43.9196 110.807 44.1974 111.275 44.376C111.744 44.5745 112.233 44.6737 112.763 44.6737C113.293 44.6737 113.803 44.5745 114.271 44.376C114.74 44.1776 115.168 43.8997 115.515 43.5623C115.861 43.225 116.146 42.828 116.35 42.3716C116.554 41.9151 116.656 41.419 116.656 40.903C116.656 40.387 116.554 39.8908 116.35 39.4343C116.146 38.9779 115.861 38.5611 115.515 38.2237C115.168 37.8863 114.76 37.6085 114.271 37.41C113.803 37.2116 113.293 37.1123 112.763 37.1123C112.233 37.1123 111.724 37.2116 111.255 37.41C110.786 37.6085 110.379 37.8863 110.032 38.2237C109.686 38.5611 109.4 38.9779 109.217 39.4343C109.034 39.9106 108.932 40.387 108.932 40.9228Z" fill="white"/>
<path d="M131.248 44.1577L131.534 44.5547C131.208 44.7333 130.861 44.8722 130.494 44.9913C130.127 45.0905 129.72 45.15 129.312 45.15C128.701 45.15 128.151 45.031 127.621 44.8127C127.091 44.5944 126.622 44.2967 126.235 43.8997C125.848 43.5227 125.522 43.0662 125.297 42.5502C125.073 42.0342 124.951 41.4785 124.951 40.903C124.951 40.3076 125.073 39.7717 125.297 39.2359C125.522 38.7199 125.827 38.2634 126.235 37.8863C126.622 37.5093 127.091 37.1917 127.621 36.9734C128.151 36.7551 128.721 36.636 129.312 36.636C129.72 36.636 130.127 36.6956 130.494 36.7948C130.861 36.894 131.208 37.0528 131.554 37.2314C131.513 37.291 131.452 37.3703 131.411 37.4299C131.371 37.5093 131.31 37.5688 131.269 37.6283C130.983 37.4696 130.678 37.3306 130.352 37.2513C130.026 37.1719 129.679 37.1123 129.312 37.1123C128.782 37.1123 128.273 37.2116 127.804 37.41C127.335 37.6085 126.928 37.8863 126.581 38.2237C126.235 38.5611 125.95 38.9779 125.766 39.4343C125.562 39.8908 125.46 40.387 125.46 40.903C125.46 41.419 125.562 41.8953 125.766 42.3517C125.97 42.8082 126.235 43.2051 126.581 43.5425C126.928 43.8799 127.335 44.1577 127.804 44.3562C128.273 44.5547 128.762 44.6539 129.292 44.6539C129.659 44.6539 130.005 44.6142 130.331 44.515C130.637 44.4554 130.943 44.3165 131.248 44.1577Z" fill="white"/>
<path d="M139.361 40.903C139.361 40.3076 139.483 39.7717 139.707 39.2359C139.931 38.7199 140.237 38.2634 140.645 37.8863C141.032 37.5093 141.501 37.1917 142.031 36.9734C142.56 36.7551 143.131 36.636 143.722 36.636C144.334 36.636 144.884 36.7551 145.434 36.9734C145.964 37.1917 146.433 37.5093 146.82 37.8863C147.207 38.2634 147.533 38.7199 147.757 39.2359C147.982 39.7519 148.104 40.3076 148.104 40.903C148.104 41.4983 147.982 42.0342 147.757 42.5502C147.533 43.0662 147.207 43.5227 146.82 43.8997C146.433 44.2768 145.964 44.5944 145.434 44.8127C144.904 45.031 144.334 45.15 143.722 45.15C143.111 45.15 142.56 45.031 142.031 44.8127C141.501 44.5944 141.032 44.2967 140.645 43.8997C140.257 43.5227 139.931 43.0662 139.707 42.5502C139.463 42.054 139.361 41.4983 139.361 40.903ZM139.87 40.9228C139.87 41.4388 139.972 41.935 140.176 42.3914C140.38 42.8479 140.645 43.2448 140.991 43.5822C141.338 43.9196 141.745 44.1974 142.214 44.376C142.683 44.5745 143.172 44.6737 143.702 44.6737C144.232 44.6737 144.741 44.5745 145.21 44.376C145.679 44.1776 146.107 43.8997 146.453 43.5623C146.8 43.225 147.085 42.828 147.289 42.3716C147.492 41.9151 147.594 41.419 147.594 40.903C147.594 40.387 147.492 39.8908 147.289 39.4343C147.085 38.9779 146.8 38.5611 146.453 38.2237C146.107 37.8863 145.699 37.6085 145.21 37.41C144.741 37.2116 144.232 37.1123 143.702 37.1123C143.172 37.1123 142.662 37.2116 142.194 37.41C141.725 37.6085 141.317 37.8863 140.971 38.2237C140.624 38.5611 140.339 38.9779 140.156 39.4343C139.972 39.9106 139.87 40.387 139.87 40.9228Z" fill="white"/>
<path d="M156.214 45.0715V36.7361H156.724V44.5952H161.472V45.0715H156.214Z" fill="white"/>
</svg>
