<svg width="10" height="9" viewBox="0 0 10 9" fill="none" xmlns="http://www.w3.org/2000/svg">
<path d="M9.48523 6.29015C9.36523 7.62519 8.4002 8.50021 7.00017 8.50021H2.50006C1.12003 8.50021 0 7.38018 0 6.00015V2.50006C0 1.14003 0.82002 0.190005 2.09505 0.0300007C2.22505 0.0100002 2.36006 0 2.50006 0H7.00017C7.13017 0 7.25518 0.0050001 7.37518 0.0250006C8.57021 0.165004 9.38023 1.00002 9.48523 2.21005C9.50023 2.35506 9.38023 2.47506 9.23523 2.47506H8.46021C7.98019 2.47506 7.53518 2.66006 7.21518 2.99007C6.83517 3.36008 6.64516 3.88009 6.69016 4.40011C6.77017 5.31013 7.57019 6.02515 8.52021 6.02515H9.23523C9.38023 6.02515 9.50023 6.14515 9.48523 6.29015Z" fill="#0066B1"/>
<path d="M10.0001 3.73504V4.76506C10.0001 5.04007 9.7801 5.26507 9.5001 5.27507H8.52007C7.98006 5.27507 7.48505 4.88006 7.44005 4.34005C7.41005 4.02504 7.53005 3.73004 7.74005 3.52503C7.92506 3.33503 8.18006 3.22502 8.46007 3.22502H9.5001C9.7801 3.23502 10.0001 3.46003 10.0001 3.73504Z" fill="#0066B1"/>
</svg>
