<svg width="28" height="28" viewBox="0 0 28 28" fill="none" xmlns="http://www.w3.org/2000/svg">
<path d="M4.6665 14C4.6665 9.60022 4.6665 7.40033 6.03334 6.0335C7.40017 4.66666 9.60006 4.66666 13.9998 4.66666C18.3996 4.66666 20.5995 4.66666 21.9663 6.0335C23.3332 7.40033 23.3332 9.60022 23.3332 14C23.3332 18.3998 23.3332 20.5997 21.9663 21.9665C20.5995 23.3333 18.3996 23.3333 13.9998 23.3333C9.60006 23.3333 7.40017 23.3333 6.03334 21.9665C4.6665 20.5997 4.6665 18.3998 4.6665 14Z" stroke="black" stroke-width="1.5"/>
<path d="M12.6001 15.4H9.8001M12.6001 15.4V18.2M12.6001 15.4L9.33343 18.6667" stroke="black" stroke-width="1.5" stroke-linecap="round" stroke-linejoin="round"/>
<path d="M15.3998 12.6H18.1998M15.3998 12.6V9.8M15.3998 12.6L18.6665 9.33333" stroke="black" stroke-width="1.5" stroke-linecap="round" stroke-linejoin="round"/>
</svg>
