<svg width="19" height="22" viewBox="0 0 19 22" fill="none" xmlns="http://www.w3.org/2000/svg">
<path d="M18.7325 7.17186C17.6085 2.22649 13.2947 0 9.50537 0C9.50537 0 9.50537 0 9.49467 0C5.71606 0 1.39153 2.21578 0.267583 7.16116C-0.984816 12.6846 2.39773 17.3623 5.45916 20.306C6.59381 21.3978 8.04959 21.9438 9.50537 21.9438C10.9612 21.9438 12.4169 21.3978 13.5409 20.306C16.6023 17.3623 19.9849 12.6953 18.7325 7.17186ZM9.50537 12.5347C7.64283 12.5347 6.13353 11.0254 6.13353 9.16286C6.13353 7.30031 7.64283 5.79101 9.50537 5.79101C11.3679 5.79101 12.8772 7.30031 12.8772 9.16286C12.8772 11.0254 11.3679 12.5347 9.50537 12.5347Z" fill="#252222"/>
</svg>
