<svg width="20" height="20" viewBox="0 0 20 20" fill="none" xmlns="http://www.w3.org/2000/svg">
<path d="M13.17 3.33301H6.83001C6.05743 3.33301 5.67114 3.33301 5.35959 3.44141C4.76881 3.64698 4.30499 4.12447 4.1053 4.73265C4 5.05337 4 5.45104 4 6.24638V15.5825C4 16.1546 4.65666 16.4582 5.07206 16.0781C5.31612 15.8548 5.68388 15.8548 5.92794 16.0781L6.25 16.3728C6.67772 16.7642 7.32228 16.7642 7.75 16.3728C8.17772 15.9814 8.82228 15.9814 9.25 16.3728C9.67772 16.7642 10.3223 16.7642 10.75 16.3728C11.1777 15.9814 11.8223 15.9814 12.25 16.3728C12.6777 16.7642 13.3223 16.7642 13.75 16.3728L14.0721 16.0781C14.3161 15.8548 14.6839 15.8548 14.9279 16.0781C15.3433 16.4582 16 16.1546 16 15.5825V6.24638C16 5.45104 16 5.05337 15.8947 4.73265C15.695 4.12447 15.2312 3.64698 14.6404 3.44141C14.3289 3.33301 13.9426 3.33301 13.17 3.33301Z" stroke="#4B4949" stroke-width="1.07143"/>
<path d="M9 9.33398L13.3333 9.33398" stroke="#4B4949" stroke-width="1.07143" stroke-linecap="round"/>
<path d="M6.66602 9.33398H6.99935" stroke="#4B4949" stroke-width="1.07143" stroke-linecap="round"/>
<path d="M6.66602 7H6.99935" stroke="#4B4949" stroke-width="1.07143" stroke-linecap="round"/>
<path d="M6.66602 11.667H6.99935" stroke="#4B4949" stroke-width="1.07143" stroke-linecap="round"/>
<path d="M9 7H13.3333" stroke="#4B4949" stroke-width="1.07143" stroke-linecap="round"/>
<path d="M9 11.667H13.3333" stroke="#4B4949" stroke-width="1.07143" stroke-linecap="round"/>
</svg>
