<svg width="20" height="20" viewBox="0 0 20 20" fill="none" xmlns="http://www.w3.org/2000/svg">
<path d="M14.4405 7.52374L14.686 7.27825C14.9143 7.04996 15.0284 6.93581 15.097 6.81706C15.283 6.49482 15.283 6.09779 15.097 5.77555C15.0284 5.6568 14.9143 5.54265 14.686 5.31435C14.4577 5.08606 14.3435 4.97191 14.2248 4.90335C13.9025 4.7173 13.5055 4.7173 13.1833 4.90335C13.0645 4.97191 12.9504 5.08606 12.7221 5.31435L12.4766 5.55984M9.53074 12.4335L5.84842 16.1158C5.62013 16.3441 5.50598 16.4582 5.38723 16.5268C5.06499 16.7129 4.66796 16.7129 4.34572 16.5268C4.22697 16.4582 4.11282 16.3441 3.88452 16.1158C3.65623 15.8875 3.54208 15.7734 3.47352 15.6546C3.28747 15.3324 3.28747 14.9353 3.47352 14.6131C3.54208 14.4943 3.65623 14.3802 3.88452 14.1519L7.56684 10.4696M7.07586 9.97862L10.0217 12.9245C11.1789 14.0817 11.7576 14.6603 12.4766 14.6603C13.1956 14.6603 13.7742 14.0817 14.9315 12.9245C16.0887 11.7672 16.6673 11.1886 16.6673 10.4696C16.6673 9.75057 16.0887 9.17195 14.9315 8.01472L11.9856 5.06887C10.8284 3.91163 10.2498 3.33301 9.53074 3.33301C8.81172 3.33301 8.2331 3.91163 7.07586 5.06887C5.91862 6.22611 5.34 6.80472 5.34 7.52374C5.34 8.24276 5.91862 8.82138 7.07586 9.97862Z" stroke="#4B4949" stroke-width="1.07143"/>
</svg>
